<?xml version="1.0" standalone="no"?>
<!DOCTYPE svg PUBLIC "-//W3C//DTD SVG 20010904//EN" "http://www.w3.org/TR/2001/REC-SVG-20010904/DTD/svg10.dtd">
<!-- Created using Krita: https://krita.org -->
<svg xmlns="http://www.w3.org/2000/svg" 
    xmlns:xlink="http://www.w3.org/1999/xlink"
    xmlns:krita="http://krita.org/namespaces/svg/krita"
    xmlns:sodipodi="http://sodipodi.sourceforge.net/DTD/sodipodi-0.dtd"
    width="192pt"
    height="192pt"
    viewBox="0 0 192 192">
<defs/>
<path id="shape0" transform="translate(23.9699998804185, 55.1828866917836)" fill="none" stroke="#ffffff" stroke-width="12" stroke-linecap="round" stroke-linejoin="round" d="M129.622 0.0321129C136.907 0.0178857 144.019 7.18697 143.992 14.4171L143.985 91.2621C144.032 98.3882 136.846 105.625 129.6 105.677L14.4 105.647C7.15052 105.612 0.028747 98.4079 0 91.2471L0.0149999 14.4471C0.0261387 7.26109 7.30301 0.0337629 14.4075 0.0621129C78.4173 -0.00906986 116.822 -0.0190699 129.622 0.0321129Z" sodipodi:nodetypes="ccccccccc"/><path id="shape1" transform="translate(71.9924994622744, 24.0108954428887)" fill="none" stroke="#ffffff" stroke-width="12" stroke-linecap="square" stroke-linejoin="bevel" d="M0 31.1929L0.00375 14.3929C-0.0189488 7.10122 7.32521 -0.0580051 14.4075 0.000354378L33.6037 0.00410426C40.9382 0.0245814 47.9793 7.22863 48.0037 14.3891L47.9775 31.2116C49.2725 30.8791 33.28 30.8729 0 31.1929Z" sodipodi:nodetypes="ccccccc"/><path id="shape2" transform="translate(23.9399998216387, 96)" fill="none" stroke="#ffffff" stroke-width="12" stroke-linecap="butt" stroke-linejoin="bevel" d="M0 0C47.82 0 95.64 0 143.46 0" sodipodi:nodetypes="cc"/><path id="shape3" transform="translate(86.3981254658219, 75.6787473406937)" fill="none" stroke="#ffffff" stroke-width="12" stroke-linecap="round" stroke-linejoin="round" d="M0 0L19.2037 0.00375013C6.4025 0.00625004 0.00124933 0.005 0 0Z" sodipodi:nodetypes="ccc"/>
</svg>
