<?xml version="1.0" standalone="no"?>
<!DOCTYPE svg PUBLIC "-//W3C//DTD SVG 20010904//EN" "http://www.w3.org/TR/2001/REC-SVG-20010904/DTD/svg10.dtd">
<!-- Created using Krita: https://krita.org -->
<svg xmlns="http://www.w3.org/2000/svg" 
    xmlns:xlink="http://www.w3.org/1999/xlink"
    xmlns:krita="http://krita.org/namespaces/svg/krita"
    xmlns:sodipodi="http://sodipodi.sourceforge.net/DTD/sodipodi-0.dtd"
    width="178.56pt"
    height="274.08pt"
    viewBox="0 0 178.56 274.08">
<defs/>
<path id="shape0" transform="matrix(-0.707106781186598 0.707106781186599 -0.707106781186599 -0.707106781186598 300.465413400811 13.3108218108885)" fill="none" stroke="#18181b" stroke-width="9.6" stroke-linecap="round" stroke-linejoin="miter" stroke-miterlimit="0" d="M0 0L192 0" sodipodi:nodetypes="cc"/><path id="shape1" transform="matrix(-0.707106781186598 0.707106781186599 -0.707106781186599 -0.707106781186598 286.888963202032 -0.265628387892709)" fill="none" stroke="#18181b" stroke-width="9.6" stroke-linecap="round" stroke-linejoin="miter" stroke-miterlimit="0" d="M0 0L153.6 0" sodipodi:nodetypes="cc"/><path id="shape2" transform="matrix(-0.707106781186548 0.707106781186549 -0.707106781186549 -0.707106781186548 274.306625552942 -14.1953256049489)" fill="none" stroke="#18181b" stroke-width="9.6" stroke-linecap="round" stroke-linejoin="miter" stroke-miterlimit="0" d="M0 0L196.8 0" sodipodi:nodetypes="cc"/><path id="shape3" transform="matrix(-0.707106781186548 0.707106781186549 -0.707106781186549 -0.707106781186548 260.730175354158 -27.77177580373)" fill="none" stroke="#18181b" stroke-width="9.6" stroke-linecap="round" stroke-linejoin="miter" stroke-miterlimit="0" d="M0 0L216 0" sodipodi:nodetypes="cc"/><path id="shape4" transform="matrix(-0.707106781186548 0.707106781186549 -0.707106781186549 -0.707106781186548 247.153725155376 -41.3482260025129)" fill="none" stroke="#18181b" stroke-width="9.6" stroke-linecap="round" stroke-linejoin="miter" stroke-miterlimit="0" d="M0 0L168 1.84741e-12" sodipodi:nodetypes="cc"/><path id="shape5" transform="matrix(-0.707106781186548 0.707106781186549 -0.707106781186549 -0.707106781186548 233.577274956594 -54.9246762012939)" fill="none" stroke="#18181b" stroke-width="9.6" stroke-linecap="round" stroke-linejoin="miter" stroke-miterlimit="0" d="M0 0L196.8 2.07478e-12" sodipodi:nodetypes="cc"/><path id="shape6" transform="matrix(-0.707106781186548 0.707106781186549 -0.707106781186549 -0.707106781186548 220.000824757813 -68.5011264000752)" fill="none" stroke="#18181b" stroke-width="9.6" stroke-linecap="round" stroke-linejoin="miter" stroke-miterlimit="0" d="M0 4.26326e-13L177.6 0" sodipodi:nodetypes="cc"/><path id="shape7" transform="matrix(-0.707106781186548 0.707106781186549 -0.707106781186549 -0.707106781186548 206.424374559033 -82.0775765988586)" fill="none" stroke="#18181b" stroke-width="9.6" stroke-linecap="round" stroke-linejoin="miter" stroke-miterlimit="0" d="M0 0L225.6 3.78009e-12" sodipodi:nodetypes="cc"/><path id="shape8" transform="matrix(-0.707106781186548 0.707106781186549 -0.707106781186549 -0.707106781186548 192.847924360249 -95.65402679764)" fill="none" stroke="#18181b" stroke-width="9.6" stroke-linecap="round" stroke-linejoin="miter" stroke-miterlimit="0" d="M0 0L216 0" sodipodi:nodetypes="cc"/><path id="shape9" transform="matrix(-0.707106781186598 0.707106781186599 -0.707106781186599 -0.707106781186598 178.277361611772 -108.877229978145)" fill="none" stroke="#18181b" stroke-width="9.6" stroke-linecap="round" stroke-linejoin="miter" stroke-miterlimit="0" d="M0 0L172.8 0" sodipodi:nodetypes="cc"/><path id="shape10" transform="matrix(-0.707106781186598 0.707106781186599 -0.707106781186599 -0.707106781186598 164.70091141299 -122.453680176927)" fill="none" stroke="#18181b" stroke-width="9.6" stroke-linecap="round" stroke-linejoin="miter" stroke-miterlimit="0" d="M0 0L211.2 0" sodipodi:nodetypes="cc"/><path id="shape11" transform="matrix(-0.707106781186598 0.707106781186599 -0.707106781186599 -0.707106781186598 151.124461214209 162.651773997495)" fill="none" stroke="#18181b" stroke-width="9.6" stroke-linecap="round" stroke-linejoin="miter" stroke-miterlimit="0" d="M0 0L9.6 0" sodipodi:nodetypes="cc"/><path id="shape12" transform="matrix(-0.707106781186598 0.707106781186599 -0.707106781186599 -0.707106781186598 164.700911412995 121.922423401146)" fill="none" stroke="#18181b" stroke-width="9.6" stroke-linecap="round" stroke-linejoin="miter" stroke-miterlimit="0" d="M0 0L28.8 0" sodipodi:nodetypes="cc"/><path id="shape13" transform="matrix(-0.707106781186548 0.707106781186549 -0.707106781186549 -0.707106781186548 114.783335717252 91.0221634356136)" fill="none" stroke="#18181b" stroke-width="9.6" stroke-linecap="round" stroke-linejoin="miter" stroke-miterlimit="0" d="M0 0L19.2 0" sodipodi:nodetypes="cc"/><path id="shape14" transform="matrix(-0.707106781186548 0.707106781186549 -0.707106781186549 -0.707106781186548 87.6304353196875 118.175063833177)" fill="none" stroke="#18181b" stroke-width="9.6" stroke-linecap="round" stroke-linejoin="miter" stroke-miterlimit="0" d="M0 0L0.0824474 -2.84217e-14" sodipodi:nodetypes="cc"/><path id="shape15" transform="matrix(-0.707106781186548 0.707106781186549 -0.707106781186549 -0.707106781186548 80.8422102202985 70.6574881374423)" fill="none" stroke="#18181b" stroke-width="9.6" stroke-linecap="round" stroke-linejoin="miter" stroke-miterlimit="0" d="M0 0L0.254949 0" sodipodi:nodetypes="cc"/><path id="shape16" transform="matrix(-0.707106781186548 0.707106781186549 -0.707106781186549 -0.707106781186548 26.5364094251674 70.6574881374455)" fill="none" stroke="#18181b" stroke-width="9.6" stroke-linecap="round" stroke-linejoin="miter" stroke-miterlimit="0" d="M0 0L9.6 0" sodipodi:nodetypes="cc"/><path id="shape17" transform="matrix(-0.707106781186598 0.707106781186599 -0.707106781186599 -0.707106781186598 42.5128596239535 26.8872720096768)" fill="none" stroke="#18181b" stroke-width="9.6" stroke-linecap="round" stroke-linejoin="miter" stroke-miterlimit="0" d="M0 0L19.2 0" sodipodi:nodetypes="cc"/><path id="shape18" transform="matrix(-0.707106781186548 0.707106781186549 -0.707106781186549 -0.707106781186548 67.2657600215166 84.2339383362236)" fill="none" stroke="#18181b" stroke-width="9.6" stroke-linecap="round" stroke-linejoin="miter" stroke-miterlimit="0" d="M0 0L0.179999 0" sodipodi:nodetypes="cc"/><path id="shape19" transform="matrix(-0.707106781186548 0.707106781186549 -0.707106781186549 -0.707106781186548 80.8422102202975 97.8103885350036)" fill="none" stroke="#18181b" stroke-width="9.6" stroke-linecap="round" stroke-linejoin="miter" stroke-miterlimit="0" d="M0 0L28.8 0" sodipodi:nodetypes="cc"/>
</svg>
