<?xml version="1.0" standalone="no"?>
<!DOCTYPE svg PUBLIC "-//W3C//DTD SVG 20010904//EN" "http://www.w3.org/TR/2001/REC-SVG-20010904/DTD/svg10.dtd">
<!-- Created using Krita: https://krita.org -->
<svg xmlns="http://www.w3.org/2000/svg" 
    xmlns:xlink="http://www.w3.org/1999/xlink"
    xmlns:krita="http://krita.org/namespaces/svg/krita"
    xmlns:sodipodi="http://sodipodi.sourceforge.net/DTD/sodipodi-0.dtd"
    width="900.48pt"
    height="1397.76pt"
    viewBox="0 0 900.48 1397.76">
<defs/>
<path id="shape0" transform="matrix(0.707106781186549 -0.707106781186549 0.707106781186549 0.707106781186549 2.75495627959496 382.07201000496)" fill="none" stroke="#18181b" stroke-width="9.6" stroke-linecap="round" stroke-linejoin="miter" stroke-miterlimit="0" d="M0 0L181.8 0.36" sodipodi:nodetypes="cc"/><path id="shape1" transform="matrix(0.707106781186549 -0.707106781186549 0.707106781186549 0.707106781186549 16.5011173339161 395.818168434375)" fill="none" stroke="#18181b" stroke-width="9.6" stroke-linecap="round" stroke-linejoin="miter" stroke-miterlimit="0" d="M0 0L163.08 0" sodipodi:nodetypes="cc"/><path id="shape2" transform="matrix(0.707106781186549 -0.707106781186549 0.707106781186549 0.707106781186549 29.992714697601 409.309765798059)" fill="none" stroke="#18181b" stroke-width="9.6" stroke-linecap="round" stroke-linejoin="miter" stroke-miterlimit="0" d="M0 0.36L201.6 0" sodipodi:nodetypes="cc"/><path id="shape3" transform="matrix(0.707106781186549 -0.707106781186549 0.707106781186549 0.707106781186549 -10.4820822487695 368.834971476595)" fill="none" stroke="#18181b" stroke-width="9.6" stroke-linecap="round" stroke-linejoin="miter" stroke-miterlimit="0" d="M0 0L172.8 0" sodipodi:nodetypes="cc"/><path id="shape4" transform="matrix(0.707106781186549 -0.707106781186549 0.707106781186549 0.707106781186549 -24.2282376436096 355.088816081754)" fill="none" stroke="#18181b" stroke-width="9.6" stroke-linecap="round" stroke-linejoin="miter" stroke-miterlimit="0" d="M0 0L153.36 0" sodipodi:nodetypes="cc"/><path id="shape5" transform="matrix(0.707106781186549 -0.707106781186549 0.707106781186549 0.707106781186549 -37.9743930384516 341.851777553387)" fill="none" stroke="#18181b" stroke-width="9.6" stroke-linecap="round" stroke-linejoin="miter" stroke-miterlimit="0" d="M0 0L182.52 0" sodipodi:nodetypes="cc"/><path id="shape6" transform="matrix(0.707106781186549 -0.707106781186549 0.707106781186549 0.707106781186549 -51.465990000055 327.851063725308)" fill="none" stroke="#18181b" stroke-width="9.6" stroke-linecap="round" stroke-linejoin="miter" stroke-miterlimit="0" d="M0 0L172.44 0" sodipodi:nodetypes="cc"/><path id="shape7" transform="matrix(0.707106781186549 -0.707106781186549 0.707106781186549 0.707106781186549 -65.1485057865876 314.041268722156)" fill="none" stroke="#18181b" stroke-width="9.6" stroke-linecap="round" stroke-linejoin="miter" stroke-miterlimit="0" d="M0 0.36L191.79 0" sodipodi:nodetypes="cc"/><path id="shape8" transform="matrix(0.707106781186549 -0.707106781186549 0.707106781186549 0.707106781186549 -78.7037395343469 300.613311566109)" fill="none" stroke="#18181b" stroke-width="9.6" stroke-linecap="round" stroke-linejoin="miter" stroke-miterlimit="0" d="M0 0.72L163.08 0" sodipodi:nodetypes="cc"/><path id="shape9" transform="matrix(0.707106781186549 -0.707106781186549 0.707106781186549 0.707106781186549 43.7388640308911 423.055917756252)" fill="none" stroke="#18181b" stroke-width="9.6" stroke-linecap="round" stroke-linejoin="miter" stroke-miterlimit="0" d="M0 0L172.8 0" sodipodi:nodetypes="cc"/><path id="shape10" transform="matrix(0.707106781186549 -0.707106781186549 0.707106781186549 0.707106781186549 47.1329764740634 175.285709404775)" fill="none" stroke="#18181b" stroke-width="9.6" stroke-linecap="round" stroke-linejoin="miter" stroke-miterlimit="0" d="M0 0L23.88 0.12" sodipodi:nodetypes="cc"/><path id="shape11" transform="matrix(0.707106781186549 -0.707106781186549 0.707106781186549 0.707106781186549 81.1589461304198 195.735239803243)" fill="none" stroke="#18181b" stroke-width="9.6" stroke-linecap="round" stroke-linejoin="miter" stroke-miterlimit="0" d="M0 0L9.72 0" sodipodi:nodetypes="cc"/><path id="shape12" transform="matrix(0.707106781186549 -0.707106781186549 0.707106781186549 0.707106781186549 94.6823624931507 236.305488891432)" fill="none" stroke="#18181b" stroke-width="9.6" stroke-linecap="round" stroke-linejoin="miter" stroke-miterlimit="0" d="M0 0L0.09 0.045" sodipodi:nodetypes="cc"/><path id="shape13" transform="matrix(0.707106781186549 -0.707106781186549 0.707106781186549 0.707106781186549 121.718597412746 236.464586192931)" fill="none" stroke="#18181b" stroke-width="9.6" stroke-linecap="round" stroke-linejoin="miter" stroke-miterlimit="0" d="M0 0.24L23.76 0" sodipodi:nodetypes="cc"/><path id="shape14" transform="matrix(0.707106781186549 -0.707106781186549 0.707106781186549 0.707106781186549 148.871496958114 209.311686647563)" fill="none" stroke="#18181b" stroke-width="9.6" stroke-linecap="round" stroke-linejoin="miter" stroke-miterlimit="0" d="M0 0L0.48 0" sodipodi:nodetypes="cc"/><path id="shape15" transform="matrix(0.707106781186549 -0.707106781186549 0.707106781186549 0.707106781186549 142.125707880697 270.19357788761)" fill="none" stroke="#18181b" stroke-width="9.6" stroke-linecap="round" stroke-linejoin="miter" stroke-miterlimit="0" d="M0 0L14.4 0" sodipodi:nodetypes="cc"/><path id="shape16" transform="matrix(0.707106781186549 -0.707106781186549 0.707106781186549 0.707106781186549 -91.9407783282771 287.206567005288)" fill="none" stroke="#18181b" stroke-width="9.6" stroke-linecap="round" stroke-linejoin="miter" stroke-miterlimit="0" d="M0 0L144 0" sodipodi:nodetypes="cc"/><path id="shape17" transform="matrix(0.707106781186549 -0.707106781186549 0.707106781186549 0.707106781186549 97.8961792311534 178.828310638548)" fill="none" stroke="#18181b" stroke-width="9.6" stroke-linecap="round" stroke-linejoin="miter" stroke-miterlimit="0" d="M0 0L0.33 0" sodipodi:nodetypes="cc"/><path id="shape18" transform="matrix(0.707106781186549 -0.707106781186549 0.707106781186549 0.707106781186549 104.917749554058 226.112541110769)" fill="none" stroke="#18181b" stroke-width="9.6" stroke-linecap="round" stroke-linejoin="miter" stroke-miterlimit="0" d="M0 0L19.2 0" sodipodi:nodetypes="cc"/><path id="shape01" transform="matrix(-0.707106781186598 0.707106781186599 -0.707106781186599 -0.707106781186598 1012.51676541956 40.6708227140029)" fill="none" stroke="#18181b" stroke-width="9.6" stroke-linecap="round" stroke-linejoin="miter" stroke-miterlimit="0" d="M0 0L192 0" sodipodi:nodetypes="cc"/><path id="shape19" transform="matrix(-0.707106781186598 0.707106781186599 -0.707106781186599 -0.707106781186598 998.940315220779 27.0943725152218)" fill="none" stroke="#18181b" stroke-width="9.6" stroke-linecap="round" stroke-linejoin="miter" stroke-miterlimit="0" d="M0 0L153.6 0" sodipodi:nodetypes="cc"/><path id="shape21" transform="matrix(-0.707106781186548 0.707106781186549 -0.707106781186549 -0.707106781186548 986.357977571688 13.1646752981655)" fill="none" stroke="#18181b" stroke-width="9.6" stroke-linecap="round" stroke-linejoin="miter" stroke-miterlimit="0" d="M0 0L196.8 0" sodipodi:nodetypes="cc"/><path id="shape31" transform="matrix(-0.707106781186548 0.707106781186549 -0.707106781186549 -0.707106781186548 972.781527372904 -0.411774900615519)" fill="none" stroke="#18181b" stroke-width="9.6" stroke-linecap="round" stroke-linejoin="miter" stroke-miterlimit="0" d="M0 0L216 0" sodipodi:nodetypes="cc"/><path id="shape41" transform="matrix(-0.707106781186548 0.707106781186549 -0.707106781186549 -0.707106781186548 959.205077174123 -13.9882250993982)" fill="none" stroke="#18181b" stroke-width="9.6" stroke-linecap="round" stroke-linejoin="miter" stroke-miterlimit="0" d="M0 0L168 1.84741e-12" sodipodi:nodetypes="cc"/><path id="shape51" transform="matrix(-0.707106781186548 0.707106781186549 -0.707106781186549 -0.707106781186548 945.62862697534 -27.5646752981794)" fill="none" stroke="#18181b" stroke-width="9.6" stroke-linecap="round" stroke-linejoin="miter" stroke-miterlimit="0" d="M0 0L196.8 2.07478e-12" sodipodi:nodetypes="cc"/><path id="shape61" transform="matrix(-0.707106781186548 0.707106781186549 -0.707106781186549 -0.707106781186548 932.052176776559 -41.1411254969606)" fill="none" stroke="#18181b" stroke-width="9.6" stroke-linecap="round" stroke-linejoin="miter" stroke-miterlimit="0" d="M0 4.26326e-13L177.6 0" sodipodi:nodetypes="cc"/><path id="shape71" transform="matrix(-0.707106781186548 0.707106781186549 -0.707106781186549 -0.707106781186548 918.475726577779 -54.7175756957441)" fill="none" stroke="#18181b" stroke-width="9.6" stroke-linecap="round" stroke-linejoin="miter" stroke-miterlimit="0" d="M0 0L225.6 3.78009e-12" sodipodi:nodetypes="cc"/><path id="shape81" transform="matrix(-0.707106781186548 0.707106781186549 -0.707106781186549 -0.707106781186548 904.899276378995 -68.2940258945256)" fill="none" stroke="#18181b" stroke-width="9.6" stroke-linecap="round" stroke-linejoin="miter" stroke-miterlimit="0" d="M0 0L216 0" sodipodi:nodetypes="cc"/><path id="shape91" transform="matrix(-0.707106781186598 0.707106781186599 -0.707106781186599 -0.707106781186598 890.328713630518 -81.5172290750305)" fill="none" stroke="#18181b" stroke-width="9.6" stroke-linecap="round" stroke-linejoin="miter" stroke-miterlimit="0" d="M0 0L172.8 0" sodipodi:nodetypes="cc"/><path id="shape101" transform="matrix(-0.707106781186598 0.707106781186599 -0.707106781186599 -0.707106781186598 876.752263431737 -95.0936792738123)" fill="none" stroke="#18181b" stroke-width="9.6" stroke-linecap="round" stroke-linejoin="miter" stroke-miterlimit="0" d="M0 0L211.2 0" sodipodi:nodetypes="cc"/><path id="shape111" transform="matrix(-0.707106781186598 0.707106781186599 -0.707106781186599 -0.707106781186598 863.175813232955 190.011774900609)" fill="none" stroke="#18181b" stroke-width="9.6" stroke-linecap="round" stroke-linejoin="miter" stroke-miterlimit="0" d="M0 0L9.6 0" sodipodi:nodetypes="cc"/><path id="shape121" transform="matrix(-0.707106781186598 0.707106781186599 -0.707106781186599 -0.707106781186598 876.752263431741 149.28242430426)" fill="none" stroke="#18181b" stroke-width="9.6" stroke-linecap="round" stroke-linejoin="miter" stroke-miterlimit="0" d="M0 0L28.8 0" sodipodi:nodetypes="cc"/><path id="shape131" transform="matrix(-0.707106781186548 0.707106781186549 -0.707106781186549 -0.707106781186548 826.834687735998 118.382164338728)" fill="none" stroke="#18181b" stroke-width="9.6" stroke-linecap="round" stroke-linejoin="miter" stroke-miterlimit="0" d="M0 0L19.2 0" sodipodi:nodetypes="cc"/><path id="shape141" transform="matrix(-0.707106781186548 0.707106781186549 -0.707106781186549 -0.707106781186548 799.681787338435 145.535064736291)" fill="none" stroke="#18181b" stroke-width="9.6" stroke-linecap="round" stroke-linejoin="miter" stroke-miterlimit="0" d="M0 0L0.0824474 -2.84217e-14" sodipodi:nodetypes="cc"/><path id="shape151" transform="matrix(-0.707106781186548 0.707106781186549 -0.707106781186549 -0.707106781186548 792.893562239045 98.017489040557)" fill="none" stroke="#18181b" stroke-width="9.6" stroke-linecap="round" stroke-linejoin="miter" stroke-miterlimit="0" d="M0 0L0.254949 0" sodipodi:nodetypes="cc"/><path id="shape161" transform="matrix(-0.707106781186548 0.707106781186549 -0.707106781186549 -0.707106781186548 738.587761443914 98.0174890405599)" fill="none" stroke="#18181b" stroke-width="9.6" stroke-linecap="round" stroke-linejoin="miter" stroke-miterlimit="0" d="M0 0L9.6 0" sodipodi:nodetypes="cc"/><path id="shape171" transform="matrix(-0.707106781186598 0.707106781186599 -0.707106781186599 -0.707106781186598 754.5642116427 54.2472729127908)" fill="none" stroke="#18181b" stroke-width="9.6" stroke-linecap="round" stroke-linejoin="miter" stroke-miterlimit="0" d="M0 0L19.2 0" sodipodi:nodetypes="cc"/><path id="shape181" transform="matrix(-0.707106781186548 0.707106781186549 -0.707106781186549 -0.707106781186548 779.317112040264 111.593939239338)" fill="none" stroke="#18181b" stroke-width="9.6" stroke-linecap="round" stroke-linejoin="miter" stroke-miterlimit="0" d="M0 0L0.179999 0" sodipodi:nodetypes="cc"/><path id="shape191" transform="matrix(-0.707106781186548 0.707106781186549 -0.707106781186549 -0.707106781186548 792.893562239044 125.170389438118)" fill="none" stroke="#18181b" stroke-width="9.6" stroke-linecap="round" stroke-linejoin="miter" stroke-miterlimit="0" d="M0 0L28.8 0" sodipodi:nodetypes="cc"/>
</svg>
