<?xml version="1.0" encoding="UTF-8" standalone="no"?>
<!-- Created with Inkscape (http://www.inkscape.org/) -->

<svg
   width="1920"
   height="500"
   viewBox="0 0 507.99999 132.29167"
   version="1.1"
   id="svg1"
   inkscape:version="1.3.2 (091e20ef0f, 2023-11-25, custom)"
   sodipodi:docname="courses-pattern.svg"
   xmlns:inkscape="http://www.inkscape.org/namespaces/inkscape"
   xmlns:sodipodi="http://sodipodi.sourceforge.net/DTD/sodipodi-0.dtd"
   xmlns="http://www.w3.org/2000/svg"
   xmlns:svg="http://www.w3.org/2000/svg">
  <sodipodi:namedview
     id="namedview1"
     pagecolor="#000000"
     bordercolor="#000000"
     borderopacity="0.25"
     inkscape:showpageshadow="2"
     inkscape:pageopacity="0.0"
     inkscape:pagecheckerboard="0"
     inkscape:deskcolor="#18181b"
     inkscape:document-units="px"
     showgrid="true"
     inkscape:zoom="0.38618476"
     inkscape:cx="1218.3287"
     inkscape:cy="154.07133"
     inkscape:window-width="1876"
     inkscape:window-height="1004"
     inkscape:window-x="0"
     inkscape:window-y="0"
     inkscape:window-maximized="1"
     inkscape:current-layer="layer3">
    <inkscape:grid
       id="grid1"
       units="px"
       originx="0"
       originy="0"
       spacingx="0.26458333"
       spacingy="0.26458334"
       empcolor="#0099e5"
       empopacity="0.30196078"
       color="#0099e5"
       opacity="0.14901961"
       empspacing="20"
       dotted="false"
       gridanglex="30"
       gridanglez="30"
       visible="true" />
  </sodipodi:namedview>
  <defs
     id="defs1" />
  <g
     inkscape:groupmode="layer"
     id="layer3"
     inkscape:label="Layer 1">
    <path
       style="fill:#ffffff;fill-opacity:1;stroke-width:0.264583"
       d="M 0,-15.875 V 31.75 c 0,2.494516 2.797151,5.291666 5.2916663,5.291666 2.4945154,0 5.2916667,-2.79715 5.2916667,-5.291666 V 15.875 c 0,-2.494516 2.79715,-5.291667 5.291666,-5.291667 2.494516,0 5.291667,2.797151 5.291667,5.291667 v 21.166666 c 0,2.494516 2.79715,5.291669 5.291666,5.291669 2.494516,0 5.291668,-2.797152 5.291668,-5.291669 V 26.458333 c 0,-2.494516 2.797151,-5.291666 5.291666,-5.291666 2.494515,0 5.291664,2.797152 5.291664,5.291666 v 21.166669 c 0,2.494516 2.797151,5.291667 5.291667,5.291667 2.494516,0 5.291666,-2.797151 5.291666,-5.291667 V 21.166667 c 0,-2.494516 2.797151,-5.291667 5.291667,-5.291667 2.494516,0 5.291667,2.797151 5.291667,5.291667 V 31.75 c 0,2.494516 2.797151,5.291666 5.291666,5.291666 2.494516,0 5.291667,-2.79715 5.291667,-5.291666 V 15.875 c 0,-2.494516 2.79715,-5.291667 5.291666,-5.291667 2.494516,0 5.291667,2.797151 5.291667,5.291667 v 10.583333 c 0,2.494516 2.797151,5.291667 5.291667,5.291667 2.494516,0 5.291666,-2.797151 5.291666,-5.291667 v -5.291666 c 0,-2.494515 2.797149,-5.291666 5.291664,-5.291667 2.49452,-10e-7 5.29167,2.79715 5.29167,5.291667 v 26.458335 c 0,2.494517 2.79715,5.291668 5.29167,5.291667 2.49451,-10e-7 5.29166,-2.797152 5.29166,-5.291667 V 31.75 c 0,-2.494517 2.79715,-5.291668 5.29167,-5.291667 2.49451,1e-6 5.29166,2.797152 5.29166,5.291667 v 10.583335 c 0,2.494517 2.79715,5.291667 5.29167,5.291667 2.49452,0 5.29167,-2.79715 5.29167,-5.291667 V 26.458333 c 0,-2.494515 2.79715,-5.291665 5.29166,-5.291666 2.49452,-1e-6 5.29167,2.79715 5.29167,5.291666 V 31.75 c 0,2.494516 2.79715,5.291667 5.29167,5.291666 2.49451,-10e-7 5.29166,-2.797151 5.29166,-5.291666 V 15.875 c 0,-2.494517 2.79715,-5.291667 5.29167,-5.291667 2.49452,0 5.29167,2.79715 5.29167,5.291667 v 37.041669 c 0,2.494515 2.79715,5.291665 5.29166,5.291666 2.49452,1e-6 5.29167,-2.79715 5.29167,-5.291666 V 37.041666 c 0,-2.494516 2.79715,-5.291667 5.29167,-5.291666 2.49451,1e-6 5.29166,2.797151 5.29166,5.291666 v 10.583336 c 0,2.494517 2.79715,5.291667 5.29167,5.291667 2.49452,0 5.29167,-2.79715 5.29167,-5.291667 V 26.458333 c 0,-2.494515 2.79715,-5.291665 5.29166,-5.291666 2.49452,-1e-6 5.29167,2.79715 5.29167,5.291666 v 21.166669 c 0,2.494515 2.79715,5.291666 5.29166,5.291667 2.49452,1e-6 5.29167,-2.79715 5.29167,-5.291667 V 15.875 c 0,-2.494517 2.79715,-5.291668 5.29167,-5.291667 2.49451,1e-6 5.29166,2.797152 5.29166,5.291667 V 31.75 c 0,2.494516 2.79715,5.291666 5.29167,5.291666 2.49452,0 5.29167,-2.79715 5.29167,-5.291666 V 21.166667 c 0,-2.494515 2.79715,-5.291666 5.29166,-5.291667 2.49452,-10e-7 5.29167,2.79715 5.29167,5.291667 v 21.166668 c 0,2.494517 2.79715,5.291668 5.29167,5.291667 2.49451,-1e-6 5.29166,-2.797152 5.29166,-5.291667 V 31.75 c 0,-2.494518 2.79716,-5.291669 5.29168,-5.291667 2.49451,2e-6 5.29166,2.797152 5.29166,5.291667 v 10.583335 c 0,2.494517 2.79715,5.291667 5.29167,5.291667 2.49452,0 5.29167,-2.79715 5.29167,-5.291667 V 21.166667 c 0,-2.494515 2.79715,-5.291666 5.29166,-5.291667 2.49452,-10e-7 5.29167,2.79715 5.29167,5.291667 v 15.874999 c 0,2.494517 2.79715,5.29167 5.29167,5.291669 2.49451,-10e-7 5.29166,-2.797154 5.29166,-5.291669 V 15.875 c 0,-2.494517 2.79715,-5.291667 5.29167,-5.291667 2.49452,0 5.29167,2.79715 5.29167,5.291667 v 37.041669 c 0,2.494515 2.79715,5.291665 5.29166,5.291666 2.49452,1e-6 5.29167,-2.79715 5.29167,-5.291666 V 37.041666 c 0,-2.494516 2.79715,-5.291667 5.29167,-5.291666 2.49451,1e-6 5.29166,2.797151 5.29166,5.291666 v 10.583336 c 0,2.494517 2.79715,5.291667 5.29167,5.291667 2.49452,0 5.29167,-2.79715 5.29167,-5.291667 V 26.458333 c 0,-2.494515 2.79715,-5.291665 5.29166,-5.291666 2.49452,-1e-6 5.29167,2.79715 5.29167,5.291666 v 10.583333 c 0,2.494517 2.79715,5.29167 5.29167,5.291669 2.49451,-10e-7 5.29166,-2.797154 5.29166,-5.291669 V 15.875 c 0,-2.494517 2.79715,-5.291667 5.29167,-5.291667 2.49452,0 5.29167,2.79715 5.29167,5.291667 v 26.458335 c 0,2.494515 2.79715,5.291666 5.29166,5.291667 2.49452,10e-7 5.29167,-2.79715 5.29167,-5.291667 V 31.75 c 0,-2.494517 2.79715,-5.291668 5.29167,-5.291667 2.49451,1e-6 5.29166,2.797152 5.29166,5.291667 v 21.166669 c 0,2.494507 2.79713,5.291662 5.29164,5.291666 2.49452,4e-6 5.29167,-2.79715 5.29167,-5.291666 V 21.166667 c 0,-2.494515 2.79715,-5.291666 5.29166,-5.291667 2.49452,-10e-7 5.29167,2.79715 5.29167,5.291667 v 15.874999 c 0,2.494517 2.79715,5.29167 5.29167,5.291669 2.49451,-10e-7 5.29166,-2.797154 5.29166,-5.291669 V 21.166667 c 0,-2.494517 2.79715,-5.291667 5.29167,-5.291667 2.49452,0 5.29167,2.79715 5.29167,5.291667 V 31.75 c 0,2.494515 2.79715,5.291665 5.29166,5.291666 2.49452,10e-7 5.29167,-2.79715 5.29167,-5.291666 v -5.291667 c 0,-2.494516 2.79715,-5.291667 5.29167,-5.291666 2.49451,1e-6 5.29166,2.797151 5.29166,5.291666 v 21.166669 c 0,2.494517 2.79715,5.291667 5.29167,5.291667 2.49452,0 5.29167,-2.79715 5.29167,-5.291667 V 31.75 c 0,-2.494515 2.79715,-5.291666 5.29166,-5.291667 2.49452,-1e-6 5.29167,2.79715 5.29167,5.291667 v 10.583335 c 0,2.494517 2.79715,5.291668 5.29167,5.291667 2.49451,-1e-6 5.29166,-2.797152 5.29166,-5.291667 l 2e-5,-21.166667 c 0,-2.494517 2.79715,-5.291667 5.29167,-5.291667 2.49451,0 5.29167,2.79715 5.29167,5.291667 0,12.347222 -2e-5,-37.041668 -2e-5,-37.041668 z"
       id="path1"
       sodipodi:nodetypes="csassassassassassassassassassassassassassassassassassassassassassassassassassassassassassassassassassassassassassassassassassassassassassassassascc" />
  </g>
</svg>
