<?xml version="1.0" standalone="no"?>
<!DOCTYPE svg PUBLIC "-//W3C//DTD SVG 20010904//EN" "http://www.w3.org/TR/2001/REC-SVG-20010904/DTD/svg10.dtd">
<!-- Created using Krita: https://krita.org -->
<svg xmlns="http://www.w3.org/2000/svg" 
    xmlns:xlink="http://www.w3.org/1999/xlink"
    xmlns:krita="http://krita.org/namespaces/svg/krita"
    xmlns:sodipodi="http://sodipodi.sourceforge.net/DTD/sodipodi-0.dtd"
    width="188.64pt"
    height="266.4pt"
    viewBox="0 0 188.64 266.4">
<defs/>
<path id="shape0" transform="matrix(0.707106781186549 -0.707106781186549 0.707106781186549 0.707106781186549 5.63495627147577 338.872010126746)" fill="none" stroke="#18181b" stroke-width="9.6" stroke-linecap="round" stroke-linejoin="miter" stroke-miterlimit="0" d="M0 0L181.8 0.36" sodipodi:nodetypes="cc"/><path id="shape1" transform="matrix(0.707106781186549 -0.707106781186549 0.707106781186549 0.707106781186549 19.381117325797 352.618168556161)" fill="none" stroke="#18181b" stroke-width="9.6" stroke-linecap="round" stroke-linejoin="miter" stroke-miterlimit="0" d="M0 0L163.08 0" sodipodi:nodetypes="cc"/><path id="shape2" transform="matrix(0.707106781186549 -0.707106781186549 0.707106781186549 0.707106781186549 32.8727146894818 366.109765919846)" fill="none" stroke="#18181b" stroke-width="9.6" stroke-linecap="round" stroke-linejoin="miter" stroke-miterlimit="0" d="M0 0.36L201.6 0" sodipodi:nodetypes="cc"/><path id="shape3" transform="matrix(0.707106781186549 -0.707106781186549 0.707106781186549 0.707106781186549 -7.60208225688867 325.634971598382)" fill="none" stroke="#18181b" stroke-width="9.6" stroke-linecap="round" stroke-linejoin="miter" stroke-miterlimit="0" d="M0 0L172.8 0" sodipodi:nodetypes="cc"/><path id="shape4" transform="matrix(0.707106781186549 -0.707106781186549 0.707106781186549 0.707106781186549 -21.3482376517288 311.888816203541)" fill="none" stroke="#18181b" stroke-width="9.6" stroke-linecap="round" stroke-linejoin="miter" stroke-miterlimit="0" d="M0 0L153.36 0" sodipodi:nodetypes="cc"/><path id="shape5" transform="matrix(0.707106781186549 -0.707106781186549 0.707106781186549 0.707106781186549 -35.0943930465708 298.651777675174)" fill="none" stroke="#18181b" stroke-width="9.6" stroke-linecap="round" stroke-linejoin="miter" stroke-miterlimit="0" d="M0 0L182.52 0" sodipodi:nodetypes="cc"/><path id="shape6" transform="matrix(0.707106781186549 -0.707106781186549 0.707106781186549 0.707106781186549 -48.5859900081742 284.651063847095)" fill="none" stroke="#18181b" stroke-width="9.6" stroke-linecap="round" stroke-linejoin="miter" stroke-miterlimit="0" d="M0 0L172.44 0" sodipodi:nodetypes="cc"/><path id="shape7" transform="matrix(0.707106781186549 -0.707106781186549 0.707106781186549 0.707106781186549 -62.2685057947068 270.841268843943)" fill="none" stroke="#18181b" stroke-width="9.6" stroke-linecap="round" stroke-linejoin="miter" stroke-miterlimit="0" d="M0 0.36L191.79 0" sodipodi:nodetypes="cc"/><path id="shape8" transform="matrix(0.707106781186549 -0.707106781186549 0.707106781186549 0.707106781186549 -75.823739542466 257.413311687896)" fill="none" stroke="#18181b" stroke-width="9.6" stroke-linecap="round" stroke-linejoin="miter" stroke-miterlimit="0" d="M0 0.72L163.08 0" sodipodi:nodetypes="cc"/><path id="shape9" transform="matrix(0.707106781186549 -0.707106781186549 0.707106781186549 0.707106781186549 46.6188640227719 379.855917878038)" fill="none" stroke="#18181b" stroke-width="9.6" stroke-linecap="round" stroke-linejoin="miter" stroke-miterlimit="0" d="M0 0L172.8 0" sodipodi:nodetypes="cc"/><path id="shape10" transform="matrix(0.707106781186549 -0.707106781186549 0.707106781186549 0.707106781186549 50.0129764659442 132.085709526561)" fill="none" stroke="#18181b" stroke-width="9.6" stroke-linecap="round" stroke-linejoin="miter" stroke-miterlimit="0" d="M0 0L23.88 0.12" sodipodi:nodetypes="cc"/><path id="shape11" transform="matrix(0.707106781186549 -0.707106781186549 0.707106781186549 0.707106781186549 84.0389461223006 152.535239925029)" fill="none" stroke="#18181b" stroke-width="9.6" stroke-linecap="round" stroke-linejoin="miter" stroke-miterlimit="0" d="M0 0L9.72 0" sodipodi:nodetypes="cc"/><path id="shape12" transform="matrix(0.707106781186549 -0.707106781186549 0.707106781186549 0.707106781186549 97.5623624850315 193.105489013218)" fill="none" stroke="#18181b" stroke-width="9.6" stroke-linecap="round" stroke-linejoin="miter" stroke-miterlimit="0" d="M0 0L0.09 0.045" sodipodi:nodetypes="cc"/><path id="shape13" transform="matrix(0.707106781186549 -0.707106781186549 0.707106781186549 0.707106781186549 124.598597404627 193.264586314717)" fill="none" stroke="#18181b" stroke-width="9.6" stroke-linecap="round" stroke-linejoin="miter" stroke-miterlimit="0" d="M0 0.24L23.76 0" sodipodi:nodetypes="cc"/><path id="shape14" transform="matrix(0.707106781186549 -0.707106781186549 0.707106781186549 0.707106781186549 151.751496949995 166.111686769349)" fill="none" stroke="#18181b" stroke-width="9.6" stroke-linecap="round" stroke-linejoin="miter" stroke-miterlimit="0" d="M0 0L0.48 0" sodipodi:nodetypes="cc"/><path id="shape15" transform="matrix(0.707106781186549 -0.707106781186549 0.707106781186549 0.707106781186549 145.005707872578 226.993578009397)" fill="none" stroke="#18181b" stroke-width="9.6" stroke-linecap="round" stroke-linejoin="miter" stroke-miterlimit="0" d="M0 0L14.4 0" sodipodi:nodetypes="cc"/><path id="shape16" transform="matrix(0.707106781186549 -0.707106781186549 0.707106781186549 0.707106781186549 -89.0607783363963 244.006567127075)" fill="none" stroke="#18181b" stroke-width="9.6" stroke-linecap="round" stroke-linejoin="miter" stroke-miterlimit="0" d="M0 0L144 0" sodipodi:nodetypes="cc"/><path id="shape17" transform="matrix(0.707106781186549 -0.707106781186549 0.707106781186549 0.707106781186549 100.776179223034 135.628310760335)" fill="none" stroke="#18181b" stroke-width="9.6" stroke-linecap="round" stroke-linejoin="miter" stroke-miterlimit="0" d="M0 0L0.33 0" sodipodi:nodetypes="cc"/><path id="shape18" transform="matrix(0.707106781186549 -0.707106781186549 0.707106781186549 0.707106781186549 107.797749545939 182.912541232556)" fill="none" stroke="#18181b" stroke-width="9.6" stroke-linecap="round" stroke-linejoin="miter" stroke-miterlimit="0" d="M0 0L19.2 0" sodipodi:nodetypes="cc"/>
</svg>
